<?xml version="1.0" standalone="no"?>
<!DOCTYPE svg PUBLIC "-//W3C//DTD SVG 20010904//EN"
 "http://www.w3.org/TR/2001/REC-SVG-20010904/DTD/svg10.dtd">
<svg version="1.0" xmlns="http://www.w3.org/2000/svg"
 width="1024.000000pt" height="1024.000000pt" viewBox="0 0 1024.000000 1024.000000"
 preserveAspectRatio="xMidYMid meet">

<g transform="translate(0.000000,1024.000000) scale(0.100000,-0.100000)"
fill="#000000" stroke="none">
<path d="M3908 7650 c-85 -46 -117 -170 -67 -261 65 -118 243 -118 306 1 45
85 25 183 -51 244 -48 39 -132 46 -188 16z"/>
<path d="M6902 7649 c-67 -33 -97 -87 -97 -170 0 -60 3 -71 31 -106 17 -21 46
-46 65 -55 45 -24 120 -23 167 1 139 71 133 258 -10 332 -49 25 -103 24 -156
-2z"/>
<path d="M5305 7625 c-60 -7 -141 -16 -180 -19 -268 -23 -338 -31 -353 -42
-14 -10 -11 -17 30 -63 26 -29 57 -78 70 -109 l23 -57 0 -1475 c0 -1401 -1
-1478 -18 -1530 -10 -30 -32 -72 -48 -92 -16 -20 -29 -48 -29 -62 l0 -26 643
2 642 3 3 350 c3 379 0 430 -27 444 -27 15 -41 -1 -57 -69 -19 -84 -68 -173
-118 -217 -86 -74 -189 -103 -373 -103 l-103 0 0 1434 c0 1403 0 1435 20 1497
11 35 29 78 40 94 40 61 33 62 -165 40z"/>
<path d="M1227 7352 c-15 -17 -17 -62 -17 -483 0 -485 0 -489 42 -489 20 0 27
13 52 101 21 72 71 130 144 166 55 27 62 28 217 28 l160 0 0 -1295 c0 -1439 5
-1333 -66 -1445 -39 -61 -33 -75 28 -75 71 0 392 36 521 59 121 20 152 35 182
83 23 39 18 48 -24 48 -36 0 -67 24 -93 73 -17 30 -18 111 -21 1295 l-2 1262
159 0 c135 0 169 -3 213 -20 102 -38 155 -102 181 -217 15 -66 40 -89 63 -58
12 16 14 91 12 490 l-3 470 -27 3 c-23 3 -30 -2 -38 -25 -25 -69 -48 -98 -103
-134 -104 -68 -273 -88 -760 -89 -547 -1 -664 30 -750 199 -17 36 -37 66 -43
68 -6 2 -18 -5 -27 -15z"/>
<path d="M7553 7088 c-6 -7 -15 -29 -22 -48 -29 -91 -121 -152 -256 -169 -87
-12 -414 -27 -760 -36 -254 -7 -285 -10 -285 -31 0 -8 22 -39 50 -68 87 -92
80 14 80 -1244 0 -1275 7 -1177 -87 -1270 -54 -54 -61 -66 -43 -77 11 -7 193
-19 520 -35 118 -5 235 -12 260 -15 25 -2 113 -9 195 -15 83 -6 202 -18 265
-26 63 -7 118 -14 122 -14 4 0 8 164 8 364 0 318 -2 367 -16 380 -8 9 -20 16
-25 16 -12 0 -39 -61 -39 -87 0 -29 -45 -116 -76 -147 -16 -16 -49 -38 -74
-50 -42 -19 -61 -21 -263 -20 -120 1 -223 6 -228 11 -5 5 -8 168 -7 394 l3
384 99 3 c54 1 130 -2 168 -7 86 -12 128 -42 173 -122 37 -66 66 -75 85 -29
19 47 6 748 -14 768 -20 21 -32 9 -71 -67 -63 -127 -116 -153 -305 -155 l-135
-1 -3 388 -2 387 210 0 c186 0 215 -2 264 -20 66 -25 135 -95 171 -173 25 -56
55 -76 75 -52 7 8 9 156 8 451 -3 392 -5 439 -19 442 -9 1 -20 -3 -26 -10z"/>
<path d="M9300 7028 c-11 -18 -26 -48 -32 -66 -8 -22 -17 -32 -28 -28 -8 2
-55 18 -104 35 -138 48 -248 64 -406 58 -166 -7 -257 -29 -400 -98 -91 -45
-116 -63 -196 -143 -80 -81 -98 -104 -142 -196 -64 -132 -87 -232 -86 -370 0
-168 58 -330 168 -477 59 -78 107 -121 327 -293 360 -283 525 -493 534 -685
11 -214 -114 -380 -322 -426 -167 -38 -428 64 -567 223 -58 65 -120 188 -136
265 -6 32 -15 74 -19 93 -8 44 -42 53 -65 18 -20 -30 -21 -56 -18 -508 l2
-385 124 -38 c295 -90 440 -113 646 -104 263 12 459 95 627 265 183 186 266
429 242 705 -19 219 -118 416 -317 628 -93 100 -203 191 -382 320 -165 118
-276 223 -308 289 -49 103 -48 217 3 306 32 55 105 121 163 145 59 26 179 35
254 20 167 -35 341 -191 363 -326 10 -59 26 -95 42 -95 28 0 55 22 71 58 15
32 17 89 20 431 3 398 2 410 -31 411 -4 0 -16 -15 -27 -32z"/>
<path d="M4039 6836 c-2 -2 -49 -9 -104 -15 -252 -28 -536 -62 -603 -72 -61
-10 -76 -16 -92 -39 -28 -39 -25 -54 14 -72 50 -24 80 -92 71 -161 -8 -65 -56
-288 -135 -628 -64 -274 -85 -367 -150 -665 -22 -100 -71 -321 -110 -490 -137
-597 -132 -582 -192 -649 -26 -31 -29 -38 -17 -49 16 -15 11 -15 392 28 232
27 274 37 315 75 30 29 28 37 -11 50 -64 22 -117 102 -117 178 0 35 76 523 82
528 2 2 100 15 218 29 118 15 227 29 242 32 24 5 28 2 37 -33 19 -69 82 -477
82 -526 0 -76 -26 -142 -73 -181 -31 -27 -38 -39 -33 -55 6 -19 14 -21 73 -21
37 0 137 4 222 10 85 5 228 14 318 20 89 5 172 14 182 20 33 17 24 47 -18 69
-48 24 -96 78 -111 123 -11 35 -64 316 -161 858 -33 184 -78 430 -100 545 -22
116 -67 368 -100 560 -82 471 -93 528 -106 532 -5 2 -12 2 -15 -1z m-379 -686
c12 -74 32 -193 45 -265 33 -184 85 -508 85 -533 0 -16 -8 -22 -32 -27 -84
-14 -236 -35 -262 -35 -27 0 -28 1 -22 38 77 477 148 934 149 960 0 7 4 9 8 5
4 -4 17 -69 29 -143z"/>
<path d="M3252 3505 c-203 -57 -338 -273 -303 -482 22 -131 96 -244 200 -307
159 -97 350 -83 469 32 59 59 60 54 -41 151 l-67 65 -22 -21 c-36 -32 -63 -43
-108 -43 -99 0 -180 83 -180 185 0 83 51 153 130 176 46 14 74 8 124 -26 l37
-25 84 76 c72 65 83 79 74 95 -13 26 -106 95 -154 115 -55 23 -178 27 -243 9z"/>
<path d="M6298 3503 c-164 -2 -298 -5 -298 -7 0 -2 11 -28 25 -58 25 -53 25
-54 25 -355 0 -271 -2 -307 -19 -350 -10 -26 -16 -54 -14 -60 4 -10 43 -13
149 -13 164 0 167 2 140 70 -18 45 -22 183 -7 223 13 35 65 51 122 38 34 -8
54 -21 85 -57 43 -49 74 -55 74 -15 0 12 5 77 11 146 17 184 3 211 -70 135
l-38 -40 -96 0 -97 0 0 65 0 66 153 -3 c83 -2 160 -7 170 -12 16 -8 17 -1 15
110 -2 97 -6 119 -18 119 -8 0 -149 -1 -312 -2z"/>
<path d="M3930 3483 c0 -10 12 -36 25 -58 l25 -40 0 -315 c-1 -254 -3 -320
-15 -340 -8 -14 -14 -35 -15 -47 0 -23 1 -23 151 -23 l151 0 -6 28 c-4 15 -10
67 -13 115 -5 80 -4 89 11 85 10 -1 49 -43 89 -93 103 -128 118 -136 236 -133
l96 3 3 62 3 62 -71 76 c-38 42 -70 81 -70 87 0 5 11 24 25 40 58 69 70 106
70 213 0 83 -4 107 -22 140 -31 57 -80 104 -138 131 -48 23 -59 24 -292 24
-225 0 -243 -1 -243 -17z m428 -220 c83 -62 19 -203 -92 -203 l-36 0 0 116 0
117 51 -5 c28 -3 62 -14 77 -25z"/>
<path d="M5160 3490 c0 -6 9 -28 20 -50 11 -22 20 -48 20 -59 0 -21 -180 -605
-205 -665 -9 -20 -13 -41 -10 -46 4 -6 39 -10 79 -10 l72 0 24 75 24 76 120
-3 120 -3 8 -35 c5 -19 14 -52 19 -72 l10 -38 134 0 c98 0 134 3 137 12 3 7
-3 31 -13 53 -10 22 -64 189 -122 370 -57 182 -111 347 -120 368 l-16 37 -150
0 c-98 0 -151 -4 -151 -10z m183 -423 c9 -30 17 -57 17 -60 0 -4 -20 -7 -44
-7 l-45 0 22 60 c12 33 25 60 28 60 3 0 13 -24 22 -53z"/>
<path d="M6930 3355 c0 -80 2 -145 5 -145 3 0 25 16 51 35 43 33 50 35 120 35
l74 0 0 -250 c0 -246 0 -252 -24 -299 -19 -36 -22 -51 -13 -60 7 -7 63 -11
164 -11 169 0 165 -2 138 63 -12 29 -15 88 -15 298 l0 261 75 -4 c70 -3 76 -5
113 -41 21 -21 41 -34 45 -31 4 4 7 72 7 151 l0 143 -370 0 -370 0 0 -145z"/>
<path d="M1501 3084 c-42 -35 -43 -84 -2 -125 l29 -29 337 0 337 0 29 29 c39
40 39 82 0 122 l-29 29 -335 0 -335 0 -31 -26z"/>
<path d="M8298 3080 c-26 -27 -30 -36 -25 -68 4 -22 17 -46 32 -59 26 -23 29
-23 326 -23 196 0 307 4 321 11 11 6 26 26 34 45 12 29 12 39 0 68 -8 19 -23
39 -34 45 -14 7 -125 11 -322 11 l-302 0 -30 -30z"/>
<path d="M1255 3055 c-29 -28 -31 -42 -9 -73 21 -31 69 -30 90 3 17 26 13 55
-12 80 -22 21 -41 19 -69 -10z"/>
<path d="M9128 3063 c-30 -34 -31 -61 -4 -88 29 -29 43 -31 74 -9 15 10 22 25
22 49 0 55 -59 85 -92 48z"/>
</g>
</svg>
