<!-- icon666.com - MILLIONS vector ICONS FREE --><svg version="1.1" id="Capa_1" xmlns="http://www.w3.org/2000/svg" xmlns:xlink="http://www.w3.org/1999/xlink" x="0px" y="0px" viewBox="0 0 248.059 248.059" style="enable-background:new 0 0 248.059 248.059;" xml:space="preserve"><g><path d="M230.559,62.498h-27.785V17.133c0-4.142-3.358-7.5-7.5-7.5H52.785c-4.142,0-7.5,3.358-7.5,7.5v45.365H17.5 c-9.649,0-17.5,7.851-17.5,17.5v96.225c0,9.65,7.851,17.5,17.5,17.5h27.785v37.202c0,4.142,3.358,7.5,7.5,7.5h142.488 c4.142,0,7.5-3.358,7.5-7.5v-37.202h27.785c9.649,0,17.5-7.85,17.5-17.5V79.998C248.059,70.349,240.208,62.498,230.559,62.498z M60.285,24.633h127.488v37.865H60.285V24.633z M187.773,223.425H60.285v-74.404h127.488V223.425z M233.059,176.223 c0,1.355-1.145,2.5-2.5,2.5h-27.785v-37.202c0-4.142-3.358-7.5-7.5-7.5H52.785c-4.142,0-7.5,3.358-7.5,7.5v37.202H17.5 c-1.355,0-2.5-1.145-2.5-2.5V79.998c0-1.355,1.145-2.5,2.5-2.5h35.285h142.488h35.285c1.355,0,2.5,1.145,2.5,2.5V176.223z"></path><circle cx="195.273" cy="105.76" r="10.668"></circle><path d="M158.15,178.723H89.906c-4.142,0-7.5,3.358-7.5,7.5c0,4.142,3.358,7.5,7.5,7.5h68.244c4.142,0,7.5-3.358,7.5-7.5 C165.65,182.081,162.292,178.723,158.15,178.723z"></path></g></svg>