<?xml version="1.0" standalone="no"?>
<!DOCTYPE svg PUBLIC "-//W3C//DTD SVG 20010904//EN"
 "http://www.w3.org/TR/2001/REC-SVG-20010904/DTD/svg10.dtd">
<svg version="1.0" xmlns="http://www.w3.org/2000/svg"
 width="1024.000000pt" height="1024.000000pt" viewBox="0 0 1024.000000 1024.000000"
 preserveAspectRatio="xMidYMid meet">

<g transform="translate(0.000000,1024.000000) scale(0.100000,-0.100000)"
fill="#ffffff" stroke="none">
<path d="M3015 8243 c-267 -35 -492 -142 -678 -322 -196 -190 -311 -408 -358
-679 -18 -109 -19 -174 -19 -1483 0 -753 -3 -1369 -7 -1369 -3 0 -38 32 -78
71 -119 116 -287 229 -420 279 l-28 11 6 -75 c21 -249 114 -486 257 -653 81
-95 165 -160 300 -231 l100 -53 0 -80 c0 -43 -1 -79 -3 -79 -2 0 -43 14 -93
30 -98 34 -263 70 -316 70 -98 0 -148 -114 -68 -155 21 -11 298 -55 346 -55 3
0 3 -4 0 -9 -3 -4 -1 -68 4 -142 26 -363 144 -637 369 -859 170 -168 336 -259
570 -312 94 -21 115 -22 971 -25 l875 -4 22 -28 c38 -48 124 -100 196 -117 55
-14 79 -15 132 -6 89 15 166 52 218 106 l44 45 874 4 c778 3 882 5 944 20 203
49 331 110 490 233 258 199 410 483 461 864 11 83 14 287 14 976 l0 871 80 47
c152 88 281 236 342 392 46 120 78 294 54 294 -26 0 -241 -114 -338 -179 -57
-38 -142 -106 -190 -150 -47 -45 -89 -81 -92 -81 -3 0 -6 35 -6 78 l0 77 76
80 c345 367 549 761 450 868 -51 55 -120 43 -162 -28 -13 -23 -48 -102 -78
-176 -54 -137 -111 -249 -126 -249 -5 0 -10 251 -13 558 -3 528 -5 562 -26
654 -42 189 -117 357 -224 501 -162 219 -381 366 -655 440 l-117 32 -2035 1
c-1119 1 -2048 -1 -2065 -3z m889 -285 c8 -14 7 -21 -6 -34 -30 -30 -75 9 -48
42 16 18 39 15 54 -8z m2692 -43 c52 -26 102 -68 59 -51 -42 18 -122 18 -180
1 -74 -21 -154 -97 -174 -165 -29 -95 -5 -208 57 -273 15 -16 49 -40 76 -54
44 -22 59 -25 125 -21 85 5 124 21 176 74 44 43 47 23 9 -54 -31 -63 -69 -96
-154 -135 -54 -25 -78 -30 -146 -31 -73 -1 -86 2 -156 37 -87 43 -143 98 -185
186 -24 49 -27 68 -28 156 0 88 3 107 26 156 55 117 160 192 289 207 79 9 139
0 206 -33z m-3651 -32 c13 -71 46 -142 80 -172 19 -16 61 -39 94 -52 33 -12
58 -25 55 -30 -2 -4 -32 -18 -66 -31 -86 -31 -123 -71 -149 -164 -28 -95 -44
-95 -77 4 -29 88 -59 120 -146 157 -68 29 -79 41 -48 52 9 3 43 17 75 31 66
29 90 61 127 175 24 75 44 86 55 30z m685 -13 c14 -26 -3 -60 -30 -60 -27 0
-52 38 -39 62 13 24 55 23 69 -2z m1058 -71 c27 -83 55 -119 109 -138 21 -8
48 -17 60 -22 34 -13 18 -33 -42 -54 -71 -24 -93 -48 -124 -142 -17 -50 -31
-78 -41 -78 -9 0 -24 28 -40 77 -32 95 -47 112 -128 149 -36 16 -61 33 -57 39
3 5 12 10 18 10 7 0 36 11 64 25 56 26 86 62 104 129 30 109 43 110 77 5z
m544 64 c10 -9 18 -24 18 -34 0 -23 -26 -49 -50 -49 -10 0 -26 7 -34 16 -30
29 -9 84 31 84 9 0 25 -7 35 -17z m2102 -14 c55 -43 54 -116 -1 -159 -81 -63
-198 32 -152 123 30 58 103 75 153 36z m-3284 -69 c34 -34 24 -71 -23 -89 -24
-9 -31 -8 -53 14 -18 19 -23 31 -19 48 15 47 61 61 95 27z m-295 -85 c0 -22
-31 -33 -47 -17 -17 17 -1 44 24 40 15 -2 23 -10 23 -23z m1943 3 c5 -7 13
-28 17 -45 5 -25 12 -33 29 -33 29 0 61 -24 52 -38 -4 -7 -21 -15 -39 -20 -24
-6 -35 -16 -43 -41 -19 -59 -56 -60 -69 -1 -5 22 -15 32 -41 40 -18 6 -36 16
-40 21 -10 17 17 39 46 39 24 0 30 5 35 33 8 33 22 57 35 57 4 0 12 -6 18 -12z
m1360 -166 c3 -16 -2 -22 -16 -22 -24 0 -35 23 -19 39 16 16 31 8 35 -17z
m-3684 -8 c23 -9 20 -51 -5 -64 -37 -20 -67 28 -37 58 14 14 20 14 42 6z
m1996 -934 c0 -992 -3 -948 55 -986 37 -24 104 -29 149 -10 21 9 42 16 47 16
15 0 11 -236 -4 -248 -7 -6 -48 -21 -91 -32 -65 -18 -99 -21 -185 -18 -163 6
-241 50 -295 167 -21 45 -21 58 -26 880 l-5 834 -77 1 c-58 1 -82 5 -94 18
-15 15 -14 18 24 42 56 35 474 245 490 246 10 0 12 -185 12 -910z m-1026 790
c19 -36 38 -83 41 -105 4 -22 9 -47 11 -56 7 -41 -17 -154 -45 -214 -36 -78
-115 -161 -184 -193 -102 -48 -140 -52 -489 -52 l-328 0 -2 -677 -3 -677 -165
-68 c-91 -37 -168 -67 -172 -68 -5 0 -8 336 -8 746 l0 746 -152 -4 c-173 -5
-229 -20 -310 -83 -140 -109 -125 -315 22 -315 64 0 97 32 116 113 6 26 10 28
37 23 41 -8 57 -23 79 -74 22 -49 18 -103 -12 -162 -41 -80 -106 -115 -215
-115 -67 0 -89 4 -137 28 -70 34 -121 90 -161 176 -28 60 -31 75 -31 171 -1
78 4 119 18 160 66 193 190 320 385 393 54 21 76 22 706 27 l650 5 67 33 c115
56 194 170 206 294 l5 61 18 -24 c10 -13 34 -53 53 -89z m-597 34 c15 -24 15
-29 2 -53 -11 -20 -22 -26 -49 -26 -27 0 -38 6 -49 26 -13 24 -13 29 2 53 12
18 26 26 47 26 21 0 35 -8 47 -26z m-1316 -16 c25 -31 24 -50 -6 -78 l-24 -23
-29 30 -28 31 26 30 c31 37 37 38 61 10z m5108 -49 c81 -13 191 -58 254 -105
l49 -35 -26 -32 c-14 -18 -53 -72 -87 -122 -34 -49 -66 -92 -71 -94 -5 -2 -24
11 -41 27 -73 70 -212 95 -302 53 -104 -48 -131 -161 -61 -255 29 -38 62 -62
276 -197 118 -75 241 -197 279 -278 56 -119 64 -255 21 -382 -48 -141 -177
-266 -329 -318 -141 -48 -345 -35 -487 33 -81 38 -184 127 -204 176 -11 27 -9
33 24 78 41 57 86 148 86 177 0 11 4 26 9 34 7 11 18 1 45 -42 75 -117 159
-172 278 -183 113 -11 199 33 239 121 26 56 23 92 -9 147 -36 62 -95 108 -253
198 -209 118 -300 225 -335 392 -57 267 127 544 396 597 30 6 64 13 75 15 39
7 111 6 174 -5z m-1719 -229 c11 -11 20 -27 20 -35 0 -16 -34 -55 -48 -55 -4
0 -18 7 -30 16 -26 18 -29 56 -6 78 21 21 40 20 64 -4z m485 -265 c119 -25
204 -75 303 -180 48 -51 96 -108 107 -128 l19 -35 -57 -70 c-90 -112 -158
-160 -282 -198 -90 -28 -330 -26 -439 4 -44 12 -82 20 -84 17 -3 -3 -1 -36 5
-73 37 -241 250 -384 463 -312 36 12 82 35 103 51 20 17 41 28 46 24 5 -3 12
-22 16 -43 3 -21 19 -64 36 -96 16 -33 29 -63 29 -68 0 -26 -132 -109 -220
-137 -93 -31 -276 -31 -375 -1 -149 46 -311 174 -368 292 -49 102 -62 170 -61
318 0 120 3 144 28 215 69 200 204 334 402 399 116 38 217 44 329 21z m-1924
-271 c170 -50 305 -201 338 -379 7 -36 11 -205 11 -434 l0 -374 46 -45 c25
-24 42 -47 38 -52 -20 -18 -362 -150 -390 -150 -10 0 -13 93 -16 493 -4 537
-4 535 -65 615 -84 110 -287 109 -411 -3 l-49 -45 -31 63 c-18 34 -47 79 -67
99 -19 20 -35 41 -35 46 0 12 142 106 195 128 22 10 67 25 100 35 80 23 260
25 336 3z m-169 -431 c8 -10 33 -55 56 -100 l42 -82 -22 -26 c-13 -15 -84 -68
-158 -118 -117 -80 -138 -98 -158 -139 -20 -40 -23 -56 -17 -98 15 -110 127
-209 223 -196 23 3 56 13 72 21 l30 16 0 -141 c0 -77 1 -143 2 -147 10 -30
-190 -46 -286 -24 -161 38 -290 161 -331 316 -23 86 -21 199 5 267 32 86 88
140 260 253 98 65 173 123 205 158 28 30 53 55 56 56 3 1 13 -7 21 -16z
m-1694 -279 c30 -21 29 -59 -3 -80 -23 -15 -27 -15 -50 0 -29 19 -33 56 -9 80
19 20 34 20 62 0z m4204 -325 c29 -6 78 -24 108 -40 55 -30 140 -102 140 -119
0 -5 -38 -48 -85 -94 l-84 -84 -22 44 c-11 25 -35 55 -53 69 -76 58 -208 53
-271 -11 -37 -37 -48 -73 -43 -149 l3 -50 135 2 c74 1 151 3 170 5 l35 3 3
-169 c1 -105 -1 -173 -8 -180 -6 -6 -28 8 -64 44 -30 30 -63 58 -73 62 -10 3
-60 7 -111 7 l-92 1 2 -222 3 -223 114 -3 c79 -2 129 2 165 12 39 12 52 12 58
3 9 -13 9 -275 1 -339 -3 -24 -11 -38 -19 -38 -8 0 -14 4 -14 8 0 16 -86 95
-117 108 -18 8 -67 14 -113 14 l-80 0 -2 -417 -3 -417 -145 -61 c-459 -193
-756 -377 -1024 -635 -54 -52 -120 -123 -146 -157 l-47 -61 -44 60 c-57 79
-212 233 -314 312 -191 148 -342 241 -618 381 l-178 90 1 587 0 587 -82 3
c-75 3 -83 5 -86 24 -2 17 12 28 94 65 54 24 143 72 197 108 143 91 217 123
302 129 99 6 150 -10 206 -67 90 -89 95 -247 12 -333 -30 -32 -43 -35 -43 -13
0 53 -63 105 -127 105 -39 0 -89 -33 -110 -72 -17 -30 -18 -69 -18 -493 l0
-460 78 -50 c367 -235 481 -321 642 -485 l100 -102 70 76 c190 204 440 385
868 626 l77 44 0 663 c0 365 -2 663 -4 663 -3 0 -17 -5 -33 -11 -41 -16 -135
-28 -157 -19 -16 6 -11 13 37 44 80 53 128 113 197 246 118 227 260 348 446
379 72 12 107 12 166 0z m-4207 -89 c19 -56 34 -72 98 -100 26 -12 47 -25 47
-31 0 -6 -25 -22 -55 -35 -62 -29 -75 -45 -100 -122 -9 -30 -22 -51 -28 -49
-7 2 -21 30 -31 63 -21 64 -28 72 -98 109 -27 14 -48 29 -48 33 0 4 24 19 53
34 53 26 68 44 102 132 12 32 18 36 29 26 8 -6 22 -33 31 -60z m4914 -212 l1
-128 63 0 c109 0 189 53 240 157 41 84 47 62 47 -177 l0 -220 -175 0 -176 0 3
-367 c3 -364 3 -368 26 -405 28 -46 92 -78 155 -78 59 0 94 14 135 53 l33 31
-3 -154 -3 -155 -55 -20 c-45 -16 -81 -20 -195 -20 -123 0 -147 3 -198 23 -75
31 -165 113 -200 185 -41 84 -47 154 -47 544 l0 362 -60 3 -60 3 36 54 c20 29
48 78 61 108 28 61 23 73 -29 73 -42 0 -38 37 5 52 110 39 256 142 334 235
l48 59 7 -46 c3 -25 7 -102 7 -172z m-4012 -198 c81 -19 185 -64 231 -98 l22
-17 -41 -55 c-57 -75 -92 -155 -92 -207 0 -24 -1 -43 -2 -43 -1 0 -32 20 -69
45 -87 58 -157 78 -271 78 -149 -1 -271 -55 -368 -163 -90 -100 -134 -216
-144 -375 -12 -213 65 -423 201 -542 140 -123 370 -175 542 -122 126 38 199
92 264 195 22 35 43 64 46 64 12 0 -8 -97 -31 -148 -17 -36 -52 -80 -111 -138
l-86 -85 6 -42 c4 -22 11 -46 16 -52 5 -6 74 -40 152 -75 193 -86 505 -245
660 -337 233 -139 492 -349 584 -474 33 -45 42 -69 27 -69 -5 0 -48 35 -98 77
-279 238 -595 432 -1074 659 -245 116 -330 163 -365 202 -26 30 -51 14 -65
-43 -6 -26 -23 -58 -37 -72 -26 -26 -28 -26 -133 -20 -424 24 -781 329 -865
739 -21 101 -21 305 0 405 70 342 337 618 684 707 125 33 296 35 417 6z m1944
-60 c166 -32 298 -148 362 -318 20 -55 21 -77 25 -537 2 -348 7 -484 15 -495
7 -9 25 -25 41 -38 l29 -22 -84 -39 c-86 -40 -252 -104 -301 -116 l-28 -7 0
514 c0 347 -4 533 -11 572 -15 75 -63 153 -117 191 -40 27 -51 30 -125 30 -96
0 -157 -25 -219 -88 -33 -34 -39 -37 -44 -21 -17 54 -43 103 -76 146 -21 26
-38 51 -38 56 0 12 91 72 166 110 126 64 276 86 405 62z m-142 -492 c7 -24 26
-73 42 -110 16 -36 29 -71 29 -76 0 -20 -59 -69 -162 -137 -130 -86 -165 -118
-194 -180 -46 -96 -24 -196 59 -272 70 -64 166 -82 242 -43 22 11 40 20 42 20
1 0 3 -70 5 -155 l3 -156 -25 -7 c-14 -4 -74 -7 -135 -6 -129 0 -208 22 -302
83 -157 102 -235 253 -230 442 3 74 8 96 35 152 41 82 97 134 278 258 76 52
170 124 209 161 38 37 75 68 81 68 6 0 16 -19 23 -42z m2586 -63 l35 -34 -37
-36 -36 -35 -34 35 c-35 36 -42 55 -19 55 7 0 21 11 30 25 9 14 19 25 22 25 2
0 20 -16 39 -35z m-4520 -83 c14 -31 26 -43 50 -48 69 -15 73 -48 8 -67 -39
-12 -49 -19 -55 -44 -17 -65 -52 -66 -74 -1 -8 24 -19 34 -45 41 -19 5 -41 15
-49 23 -13 14 -13 17 4 29 11 8 34 17 52 21 26 5 33 12 38 36 7 36 24 60 40
55 6 -1 20 -22 31 -45z m3583 -676 c9 -42 -58 -64 -78 -26 -12 22 0 55 22 63
18 6 52 -17 56 -37z m913 -145 c28 -28 39 -47 39 -69 0 -41 -26 -65 -61 -58
-25 5 -37 -4 -111 -85 l-84 -89 -39 40 -39 40 87 88 c66 66 87 94 87 114 0 67
64 77 121 19z m-1110 -147 c25 -16 39 -31 37 -42 -6 -33 -104 -91 -316 -187
-557 -253 -851 -429 -1175 -707 -66 -56 -108 -76 -89 -43 19 36 132 160 192
214 238 211 538 392 981 591 132 60 252 116 265 125 14 9 30 30 36 46 12 35
18 36 69 3z m419 -8 c28 -35 -11 -93 -47 -70 -36 22 -23 84 17 84 10 0 23 -7
30 -14z m389 -180 l91 -79 -18 -29 c-9 -16 -22 -34 -28 -39 -7 -5 -46 21 -112
77 -56 46 -102 88 -102 91 0 14 55 64 67 61 7 -2 53 -38 102 -82z m-136 -132
l76 -66 -13 -32 c-41 -93 -69 -148 -80 -151 -6 -2 -69 -20 -141 -40 -71 -21
-138 -39 -147 -42 -14 -4 -11 10 18 83 20 49 42 116 48 149 12 58 15 62 82
112 38 29 72 53 75 53 3 0 40 -30 82 -66z m-3790 -40 c367 -102 668 -226 897
-368 68 -42 230 -156 230 -162 0 -2 -57 25 -127 60 -312 156 -689 298 -996
375 -86 22 -162 43 -167 46 -14 9 32 75 53 75 10 0 59 -12 110 -26z m3151 -10
c9 -20 15 -38 13 -41 -3 -2 -92 -26 -198 -54 -292 -76 -447 -130 -759 -266
-107 -47 -230 -103 -274 -125 -43 -22 -80 -37 -82 -35 -3 2 55 44 128 91 159
104 373 214 558 287 131 52 534 176 576 178 14 1 26 -10 38 -35z m-4212 -11
c32 -29 16 -73 -27 -73 -58 0 -59 88 -1 90 5 0 18 -7 28 -17z m522 -149 c9 -8
16 -24 16 -34 0 -22 -26 -50 -46 -50 -29 0 -54 21 -54 45 0 28 24 55 50 55 10
0 26 -7 34 -16z m836 -155 c178 -45 432 -133 680 -239 118 -50 250 -105 293
-123 59 -24 81 -38 88 -57 29 -78 61 -100 144 -100 51 0 60 3 91 34 20 20 34
44 34 59 0 27 -7 23 280 142 251 104 484 192 620 233 147 45 453 122 485 122
15 0 25 -14 41 -54 12 -30 19 -57 16 -60 -3 -4 -16 -6 -30 -6 -34 0 -233 -45
-377 -85 -138 -39 -323 -102 -528 -179 -179 -67 -276 -101 -349 -121 -51 -14
-60 -20 -78 -54 -27 -53 -84 -99 -148 -117 -113 -33 -221 18 -283 133 -12 23
-26 32 -55 38 -45 8 -173 52 -359 123 -302 115 -729 241 -878 258 -32 4 -59
10 -62 14 -2 3 5 31 16 62 l21 55 106 -24 c59 -13 163 -37 232 -54z m-1037 0
c15 -21 17 -31 8 -48 -20 -37 -50 -46 -80 -24 -34 26 -38 56 -11 83 27 27 57
23 83 -11z m4391 -161 c16 -26 -4 -53 -40 -53 -23 0 -30 5 -32 23 -7 47 47 69
72 30z"/>
<path d="M6080 6629 c-69 -14 -131 -57 -168 -119 l-33 -55 252 -3 c139 -1 254
0 256 2 3 2 -4 24 -15 48 -44 99 -166 153 -292 127z"/>
<path d="M7225 2968 c-30 -17 -44 -40 -45 -72 0 -27 2 -28 33 -22 53 10 85 64
55 94 -15 15 -18 15 -43 0z"/>
</g>
</svg>
