<?xml version="1.0"?>
<svg width="1024" height="1024" xmlns="http://www.w3.org/2000/svg" xmlns:svg="http://www.w3.org/2000/svg" preserveAspectRatio="xMidYMid meet" version="1.0">
 <g class="layer">
  <title>Layer 1</title>
  <rect fill="#ffffff" height="1020" id="svg_5" stroke="#000000" transform="matrix(1 0 0 1 0 0)" width="1021" x="3" y="3"/>
  <g fill="#000000" id="svg_1" transform="matrix(0.136589 0 0 -0.146332 -174.881 -235.953)">
   <path d="m3015,-1997c-267,-35 -492,-142 -678,-322c-196,-190 -311,-408 -358,-679c-18,-109 -19,-174 -19,-1483c0,-753 -3,-1369 -7,-1369c-3,0 -38,32 -78,71c-119,116 -287,229 -420,279l-28,11l6,-75c21,-249 114,-486 257,-653c81,-95 165,-160 300,-231l100,-53l0,-80c0,-43 -1,-79 -3,-79c-2,0 -43,14 -93,30c-98,34 -263,70 -316,70c-98,0 -148,-114 -68,-155c21,-11 298,-55 346,-55c3,0 3,-4 0,-9c-3,-4 -1,-68 4,-142c26,-363 144,-637 369,-859c170,-168 336,-259 570,-312c94,-21 115,-22 971,-25l875,-4l22,-28c38,-48 124,-100 196,-117c55,-14 79,-15 132,-6c89,15 166,52 218,106l44,45l874,4c778,3 882,5 944,20c203,49 331,110 490,233c258,199 410,483 461,864c11,83 14,287 14,976l0,871l80,47c152,88 281,236 342,392c46,120 78,294 54,294c-26,0 -241,-114 -338,-179c-57,-38 -142,-106 -190,-150c-47,-45 -89,-81 -92,-81c-3,0 -6,35 -6,78l0,77l76,80c345,367 549,761 450,868c-51,55 -120,43 -162,-28c-13,-23 -48,-102 -78,-176c-54,-137 -111,-249 -126,-249c-5,0 -10,251 -13,558c-3,528 -5,562 -26,654c-42,189 -117,357 -224,501c-162,219 -381,366 -655,440l-117,32l-2035,1c-1119,1 -2048,-1 -2065,-3zm889,-285c8,-14 7,-21 -6,-34c-30,-30 -75,9 -48,42c16,18 39,15 54,-8zm2692,-43c52,-26 102,-68 59,-51c-42,18 -122,18 -180,1c-74,-21 -154,-97 -174,-165c-29,-95 -5,-208 57,-273c15,-16 49,-40 76,-54c44,-22 59,-25 125,-21c85,5 124,21 176,74c44,43 47,23 9,-54c-31,-63 -69,-96 -154,-135c-54,-25 -78,-30 -146,-31c-73,-1 -86,2 -156,37c-87,43 -143,98 -185,186c-24,49 -27,68 -28,156c0,88 3,107 26,156c55,117 160,192 289,207c79,9 139,0 206,-33zm-3651,-32c13,-71 46,-142 80,-172c19,-16 61,-39 94,-52c33,-12 58,-25 55,-30c-2,-4 -32,-18 -66,-31c-86,-31 -123,-71 -149,-164c-28,-95 -44,-95 -77,4c-29,88 -59,120 -146,157c-68,29 -79,41 -48,52c9,3 43,17 75,31c66,29 90,61 127,175c24,75 44,86 55,30zm685,-13c14,-26 -3,-60 -30,-60c-27,0 -52,38 -39,62c13,24 55,23 69,-2zm1058,-71c27,-83 55,-119 109,-138c21,-8 48,-17 60,-22c34,-13 18,-33 -42,-54c-71,-24 -93,-48 -124,-142c-17,-50 -31,-78 -41,-78c-9,0 -24,28 -40,77c-32,95 -47,112 -128,149c-36,16 -61,33 -57,39c3,5 12,10 18,10c7,0 36,11 64,25c56,26 86,62 104,129c30,109 43,110 77,5zm544,64c10,-9 18,-24 18,-34c0,-23 -26,-49 -50,-49c-10,0 -26,7 -34,16c-30,29 -9,84 31,84c9,0 25,-7 35,-17zm2102,-14c55,-43 54,-116 -1,-159c-81,-63 -198,32 -152,123c30,58 103,75 153,36zm-3284,-69c34,-34 24,-71 -23,-89c-24,-9 -31,-8 -53,14c-18,19 -23,31 -19,48c15,47 61,61 95,27zm-295,-85c0,-22 -31,-33 -47,-17c-17,17 -1,44 24,40c15,-2 23,-10 23,-23zm1943,3c5,-7 13,-28 17,-45c5,-25 12,-33 29,-33c29,0 61,-24 52,-38c-4,-7 -21,-15 -39,-20c-24,-6 -35,-16 -43,-41c-19,-59 -56,-60 -69,-1c-5,22 -15,32 -41,40c-18,6 -36,16 -40,21c-10,17 17,39 46,39c24,0 30,5 35,33c8,33 22,57 35,57c4,0 12,-6 18,-12zm1360,-166c3,-16 -2,-22 -16,-22c-24,0 -35,23 -19,39c16,16 31,8 35,-17zm-3684,-8c23,-9 20,-51 -5,-64c-37,-20 -67,28 -37,58c14,14 20,14 42,6zm1996,-934c0,-992 -3,-948 55,-986c37,-24 104,-29 149,-10c21,9 42,16 47,16c15,0 11,-236 -4,-248c-7,-6 -48,-21 -91,-32c-65,-18 -99,-21 -185,-18c-163,6 -241,50 -295,167c-21,45 -21,58 -26,880l-5,834l-77,1c-58,1 -82,5 -94,18c-15,15 -14,18 24,42c56,35 474,245 490,246c10,0 12,-185 12,-910zm-1026,790c19,-36 38,-83 41,-105c4,-22 9,-47 11,-56c7,-41 -17,-154 -45,-214c-36,-78 -115,-161 -184,-193c-102,-48 -140,-52 -489,-52l-328,0l-2,-677l-3,-677l-165,-68c-91,-37 -168,-67 -172,-68c-5,0 -8,336 -8,746l0,746l-152,-4c-173,-5 -229,-20 -310,-83c-140,-109 -125,-315 22,-315c64,0 97,32 116,113c6,26 10,28 37,23c41,-8 57,-23 79,-74c22,-49 18,-103 -12,-162c-41,-80 -106,-115 -215,-115c-67,0 -89,4 -137,28c-70,34 -121,90 -161,176c-28,60 -31,75 -31,171c-1,78 4,119 18,160c66,193 190,320 385,393c54,21 76,22 706,27l650,5l67,33c115,56 194,170 206,294l5,61l18,-24c10,-13 34,-53 53,-89zm-597,34c15,-24 15,-29 2,-53c-11,-20 -22,-26 -49,-26c-27,0 -38,6 -49,26c-13,24 -13,29 2,53c12,18 26,26 47,26c21,0 35,-8 47,-26zm-1316,-16c25,-31 24,-50 -6,-78l-24,-23l-29,30l-28,31l26,30c31,37 37,38 61,10zm5108,-49c81,-13 191,-58 254,-105l49,-35l-26,-32c-14,-18 -53,-72 -87,-122c-34,-49 -66,-92 -71,-94c-5,-2 -24,11 -41,27c-73,70 -212,95 -302,53c-104,-48 -131,-161 -61,-255c29,-38 62,-62 276,-197c118,-75 241,-197 279,-278c56,-119 64,-255 21,-382c-48,-141 -177,-266 -329,-318c-141,-48 -345,-35 -487,33c-81,38 -184,127 -204,176c-11,27 -9,33 24,78c41,57 86,148 86,177c0,11 4,26 9,34c7,11 18,1 45,-42c75,-117 159,-172 278,-183c113,-11 199,33 239,121c26,56 23,92 -9,147c-36,62 -95,108 -253,198c-209,118 -300,225 -335,392c-57,267 127,544 396,597c30,6 64,13 75,15c39,7 111,6 174,-5zm-1719,-229c11,-11 20,-27 20,-35c0,-16 -34,-55 -48,-55c-4,0 -18,7 -30,16c-26,18 -29,56 -6,78c21,21 40,20 64,-4zm485,-265c119,-25 204,-75 303,-180c48,-51 96,-108 107,-128l19,-35l-57,-70c-90,-112 -158,-160 -282,-198c-90,-28 -330,-26 -439,4c-44,12 -82,20 -84,17c-3,-3 -1,-36 5,-73c37,-241 250,-384 463,-312c36,12 82,35 103,51c20,17 41,28 46,24c5,-3 12,-22 16,-43c3,-21 19,-64 36,-96c16,-33 29,-63 29,-68c0,-26 -132,-109 -220,-137c-93,-31 -276,-31 -375,-1c-149,46 -311,174 -368,292c-49,102 -62,170 -61,318c0,120 3,144 28,215c69,200 204,334 402,399c116,38 217,44 329,21zm-1924,-271c170,-50 305,-201 338,-379c7,-36 11,-205 11,-434l0,-374l46,-45c25,-24 42,-47 38,-52c-20,-18 -362,-150 -390,-150c-10,0 -13,93 -16,493c-4,537 -4,535 -65,615c-84,110 -287,109 -411,-3l-49,-45l-31,63c-18,34 -47,79 -67,99c-19,20 -35,41 -35,46c0,12 142,106 195,128c22,10 67,25 100,35c80,23 260,25 336,3zm-169,-431c8,-10 33,-55 56,-100l42,-82l-22,-26c-13,-15 -84,-68 -158,-118c-117,-80 -138,-98 -158,-139c-20,-40 -23,-56 -17,-98c15,-110 127,-209 223,-196c23,3 56,13 72,21l30,16l0,-141c0,-77 1,-143 2,-147c10,-30 -190,-46 -286,-24c-161,38 -290,161 -331,316c-23,86 -21,199 5,267c32,86 88,140 260,253c98,65 173,123 205,158c28,30 53,55 56,56c3,1 13,-7 21,-16zm-1694,-279c30,-21 29,-59 -3,-80c-23,-15 -27,-15 -50,0c-29,19 -33,56 -9,80c19,20 34,20 62,0zm4204,-325c29,-6 78,-24 108,-40c55,-30 140,-102 140,-119c0,-5 -38,-48 -85,-94l-84,-84l-22,44c-11,25 -35,55 -53,69c-76,58 -208,53 -271,-11c-37,-37 -48,-73 -43,-149l3,-50l135,2c74,1 151,3 170,5l35,3l3,-169c1,-105 -1,-173 -8,-180c-6,-6 -28,8 -64,44c-30,30 -63,58 -73,62c-10,3 -60,7 -111,7l-92,1l2,-222l3,-223l114,-3c79,-2 129,2 165,12c39,12 52,12 58,3c9,-13 9,-275 1,-339c-3,-24 -11,-38 -19,-38c-8,0 -14,4 -14,8c0,16 -86,95 -117,108c-18,8 -67,14 -113,14l-80,0l-2,-417l-3,-417l-145,-61c-459,-193 -756,-377 -1024,-635c-54,-52 -120,-123 -146,-157l-47,-61l-44,60c-57,79 -212,233 -314,312c-191,148 -342,241 -618,381l-178,90l1,587l0,587l-82,3c-75,3 -83,5 -86,24c-2,17 12,28 94,65c54,24 143,72 197,108c143,91 217,123 302,129c99,6 150,-10 206,-67c90,-89 95,-247 12,-333c-30,-32 -43,-35 -43,-13c0,53 -63,105 -127,105c-39,0 -89,-33 -110,-72c-17,-30 -18,-69 -18,-493l0,-460l78,-50c367,-235 481,-321 642,-485l100,-102l70,76c190,204 440,385 868,626l77,44l0,663c0,365 -2,663 -4,663c-3,0 -17,-5 -33,-11c-41,-16 -135,-28 -157,-19c-16,6 -11,13 37,44c80,53 128,113 197,246c118,227 260,348 446,379c72,12 107,12 166,0zm-4207,-89c19,-56 34,-72 98,-100c26,-12 47,-25 47,-31c0,-6 -25,-22 -55,-35c-62,-29 -75,-45 -100,-122c-9,-30 -22,-51 -28,-49c-7,2 -21,30 -31,63c-21,64 -28,72 -98,109c-27,14 -48,29 -48,33c0,4 24,19 53,34c53,26 68,44 102,132c12,32 18,36 29,26c8,-6 22,-33 31,-60zm4914,-212l1,-128l63,0c109,0 189,53 240,157c41,84 47,62 47,-177l0,-220l-175,0l-176,0l3,-367c3,-364 3,-368 26,-405c28,-46 92,-78 155,-78c59,0 94,14 135,53l33,31l-3,-154l-3,-155l-55,-20c-45,-16 -81,-20 -195,-20c-123,0 -147,3 -198,23c-75,31 -165,113 -200,185c-41,84 -47,154 -47,544l0,362l-60,3l-60,3l36,54c20,29 48,78 61,108c28,61 23,73 -29,73c-42,0 -38,37 5,52c110,39 256,142 334,235l48,59l7,-46c3,-25 7,-102 7,-172zm-4012,-198c81,-19 185,-64 231,-98l22,-17l-41,-55c-57,-75 -92,-155 -92,-207c0,-24 -1,-43 -2,-43c-1,0 -32,20 -69,45c-87,58 -157,78 -271,78c-149,-1 -271,-55 -368,-163c-90,-100 -134,-216 -144,-375c-12,-213 65,-423 201,-542c140,-123 370,-175 542,-122c126,38 199,92 264,195c22,35 43,64 46,64c12,0 -8,-97 -31,-148c-17,-36 -52,-80 -111,-138l-86,-85l6,-42c4,-22 11,-46 16,-52c5,-6 74,-40 152,-75c193,-86 505,-245 660,-337c233,-139 492,-349 584,-474c33,-45 42,-69 27,-69c-5,0 -48,35 -98,77c-279,238 -595,432 -1074,659c-245,116 -330,163 -365,202c-26,30 -51,14 -65,-43c-6,-26 -23,-58 -37,-72c-26,-26 -28,-26 -133,-20c-424,24 -781,329 -865,739c-21,101 -21,305 0,405c70,342 337,618 684,707c125,33 296,35 417,6zm1944,-60c166,-32 298,-148 362,-318c20,-55 21,-77 25,-537c2,-348 7,-484 15,-495c7,-9 25,-25 41,-38l29,-22l-84,-39c-86,-40 -252,-104 -301,-116l-28,-7l0,514c0,347 -4,533 -11,572c-15,75 -63,153 -117,191c-40,27 -51,30 -125,30c-96,0 -157,-25 -219,-88c-33,-34 -39,-37 -44,-21c-17,54 -43,103 -76,146c-21,26 -38,51 -38,56c0,12 91,72 166,110c126,64 276,86 405,62zm-142,-492c7,-24 26,-73 42,-110c16,-36 29,-71 29,-76c0,-20 -59,-69 -162,-137c-130,-86 -165,-118 -194,-180c-46,-96 -24,-196 59,-272c70,-64 166,-82 242,-43c22,11 40,20 42,20c1,0 3,-70 5,-155l3,-156l-25,-7c-14,-4 -74,-7 -135,-6c-129,0 -208,22 -302,83c-157,102 -235,253 -230,442c3,74 8,96 35,152c41,82 97,134 278,258c76,52 170,124 209,161c38,37 75,68 81,68c6,0 16,-19 23,-42zm2586,-63l35,-34l-37,-36l-36,-35l-34,35c-35,36 -42,55 -19,55c7,0 21,11 30,25c9,14 19,25 22,25c2,0 20,-16 39,-35zm-4520,-83c14,-31 26,-43 50,-48c69,-15 73,-48 8,-67c-39,-12 -49,-19 -55,-44c-17,-65 -52,-66 -74,-1c-8,24 -19,34 -45,41c-19,5 -41,15 -49,23c-13,14 -13,17 4,29c11,8 34,17 52,21c26,5 33,12 38,36c7,36 24,60 40,55c6,-1 20,-22 31,-45zm3583,-676c9,-42 -58,-64 -78,-26c-12,22 0,55 22,63c18,6 52,-17 56,-37zm913,-145c28,-28 39,-47 39,-69c0,-41 -26,-65 -61,-58c-25,5 -37,-4 -111,-85l-84,-89l-39,40l-39,40l87,88c66,66 87,94 87,114c0,67 64,77 121,19zm-1110,-147c25,-16 39,-31 37,-42c-6,-33 -104,-91 -316,-187c-557,-253 -851,-429 -1175,-707c-66,-56 -108,-76 -89,-43c19,36 132,160 192,214c238,211 538,392 981,591c132,60 252,116 265,125c14,9 30,30 36,46c12,35 18,36 69,3zm419,-8c28,-35 -11,-93 -47,-70c-36,22 -23,84 17,84c10,0 23,-7 30,-14zm389,-180l91,-79l-18,-29c-9,-16 -22,-34 -28,-39c-7,-5 -46,21 -112,77c-56,46 -102,88 -102,91c0,14 55,64 67,61c7,-2 53,-38 102,-82zm-136,-132l76,-66l-13,-32c-41,-93 -69,-148 -80,-151c-6,-2 -69,-20 -141,-40c-71,-21 -138,-39 -147,-42c-14,-4 -11,10 18,83c20,49 42,116 48,149c12,58 15,62 82,112c38,29 72,53 75,53c3,0 40,-30 82,-66zm-3790,-40c367,-102 668,-226 897,-368c68,-42 230,-156 230,-162c0,-2 -57,25 -127,60c-312,156 -689,298 -996,375c-86,22 -162,43 -167,46c-14,9 32,75 53,75c10,0 59,-12 110,-26zm3151,-10c9,-20 15,-38 13,-41c-3,-2 -92,-26 -198,-54c-292,-76 -447,-130 -759,-266c-107,-47 -230,-103 -274,-125c-43,-22 -80,-37 -82,-35c-3,2 55,44 128,91c159,104 373,214 558,287c131,52 534,176 576,178c14,1 26,-10 38,-35zm-4212,-11c32,-29 16,-73 -27,-73c-58,0 -59,88 -1,90c5,0 18,-7 28,-17zm522,-149c9,-8 16,-24 16,-34c0,-22 -26,-50 -46,-50c-29,0 -54,21 -54,45c0,28 24,55 50,55c10,0 26,-7 34,-16zm836,-155c178,-45 432,-133 680,-239c118,-50 250,-105 293,-123c59,-24 81,-38 88,-57c29,-78 61,-100 144,-100c51,0 60,3 91,34c20,20 34,44 34,59c0,27 -7,23 280,142c251,104 484,192 620,233c147,45 453,122 485,122c15,0 25,-14 41,-54c12,-30 19,-57 16,-60c-3,-4 -16,-6 -30,-6c-34,0 -233,-45 -377,-85c-138,-39 -323,-102 -528,-179c-179,-67 -276,-101 -349,-121c-51,-14 -60,-20 -78,-54c-27,-53 -84,-99 -148,-117c-113,-33 -221,18 -283,133c-12,23 -26,32 -55,38c-45,8 -173,52 -359,123c-302,115 -729,241 -878,258c-32,4 -59,10 -62,14c-2,3 5,31 16,62l21,55l106,-24c59,-13 163,-37 232,-54zm-1037,0c15,-21 17,-31 8,-48c-20,-37 -50,-46 -80,-24c-34,26 -38,56 -11,83c27,27 57,23 83,-11zm4391,-161c16,-26 -4,-53 -40,-53c-23,0 -30,5 -32,23c-7,47 47,69 72,30z" id="svg_2"/>
   <path d="m6080,-3611c-69,-14 -131,-57 -168,-119l-33,-55l252,-3c139,-1 254,0 256,2c3,2 -4,24 -15,48c-44,99 -166,153 -292,127z" id="svg_3"/>
   <path d="m7225,-7272c-30,-17 -44,-40 -45,-72c0,-27 2,-28 33,-22c53,10 85,64 55,94c-15,15 -18,15 -43,0z" id="svg_4"/>
  </g>
 </g>
</svg>